<svg xmlns="http://www.w3.org/2000/svg" width="200" height="200" viewBox="0 0 200 200">
  <g id="Grupo_611" data-name="Grupo 611" transform="translate(-1132 -1103)">
    <rect id="Rectángulo_283" data-name="Rectángulo 283" width="200" height="200" transform="translate(1132 1103)" fill="#7e80fc"/>
    <path id="Icon_awesome-user-alt" data-name="Icon awesome-user-alt" d="M58.485,65.8a32.9,32.9,0,1,0-32.9-32.9A32.906,32.906,0,0,0,58.485,65.8Zm29.242,7.311H75.139a39.769,39.769,0,0,1-33.309,0H29.242A29.24,29.24,0,0,0,0,102.348V106A10.969,10.969,0,0,0,10.966,116.97H106A10.969,10.969,0,0,0,116.97,106v-3.655A29.24,29.24,0,0,0,87.727,73.106Z" transform="translate(1174 1145)" fill="#373af7"/>
  </g>
</svg>
