<?xml version="1.0" encoding="utf-8"?>
<!-- Generator: Adobe Illustrator 28.1.0, SVG Export Plug-In . SVG Version: 6.00 Build 0)  -->
<svg version="1.1" id="Capa_1" xmlns="http://www.w3.org/2000/svg" xmlns:xlink="http://www.w3.org/1999/xlink" x="0px" y="0px"
	 viewBox="0 0 127.8 144.5" style="enable-background:new 0 0 127.8 144.5;" xml:space="preserve">
<style type="text/css">
	.st0{enable-background:new    ;}
	.st1{fill:#FF7800;}
	.st2{fill:none;stroke:#FF7800;stroke-width:5;stroke-linecap:round;stroke-linejoin:round;}
</style>
<g id="Grupo_607" transform="translate(2.5 2.5)">
	<g id="Grupo_551" transform="translate(16.375 39.955)">
		<g class="st0">
			<path class="st1" d="M61.3,40.8c0,2.7-0.7,5-2,7.1c-1.3,2.1-3.2,3.7-5.5,4.9c2.7,1.3,4.8,3,6.3,5.3c1.6,2.2,2.3,4.9,2.3,7.9
				c0,4.9-1.7,8.7-5,11.5c-3.3,2.8-7.8,4.2-13.5,4.2c-5.7,0-10.2-1.4-13.5-4.2c-3.3-2.8-5-6.7-5-11.5c0-3,0.8-5.7,2.3-7.9
				c1.6-2.3,3.6-4,6.3-5.3c-2.3-1.2-4.2-2.9-5.5-4.9c-1.3-2.1-2-4.4-2-7.1c0-4.7,1.6-8.4,4.7-11.1c3.1-2.8,7.3-4.2,12.7-4.2
				c5.3,0,9.5,1.4,12.7,4.1C59.8,32.4,61.3,36.1,61.3,40.8z M51.6,65.2c0-2.4-0.7-4.3-2.1-5.7c-1.4-1.4-3.2-2.1-5.6-2.1
				c-2.3,0-4.1,0.7-5.5,2.1c-1.4,1.4-2.1,3.3-2.1,5.7c0,2.3,0.7,4.2,2,5.6S41.6,73,44,73c2.4,0,4.2-0.7,5.5-2.1
				C50.9,69.5,51.6,67.6,51.6,65.2z M50.4,41.3c0-2.1-0.6-3.8-1.7-5.1c-1.1-1.3-2.7-1.9-4.8-1.9c-2,0-3.6,0.6-4.7,1.9
				c-1.1,1.3-1.7,3-1.7,5.2c0,2.2,0.6,3.9,1.7,5.3c1.1,1.3,2.7,2,4.8,2c2.1,0,3.6-0.7,4.8-2C49.9,45.3,50.4,43.5,50.4,41.3z"/>
		</g>
	</g>
	<g id="Icon_feather-calendar">
		<path id="Trazado_2716" class="st2" d="M13.6,13.6h95.5c7.5,0,13.6,6.1,13.6,13.6v95.5c0,7.5-6.1,13.6-13.6,13.6H13.6
			c-7.5,0-13.6-6.1-13.6-13.6V27.3C0,19.8,6.1,13.6,13.6,13.6L13.6,13.6z"/>
		<path id="Trazado_2717" class="st2" d="M88.7,0v27.3"/>
		<path id="Trazado_2718" class="st2" d="M34.1,0v27.3"/>
		<path id="Trazado_2719" class="st2" d="M0,54.6h122.8"/>
	</g>
</g>
</svg>
