<?xml version="1.0" encoding="utf-8"?>
<!-- Generator: Adobe Illustrator 28.1.0, SVG Export Plug-In . SVG Version: 6.00 Build 0)  -->
<svg version="1.1" id="Capa_1" xmlns="http://www.w3.org/2000/svg" xmlns:xlink="http://www.w3.org/1999/xlink" x="0px" y="0px"
	 viewBox="0 0 192.5 220.5" style="enable-background:new 0 0 192.5 220.5;" xml:space="preserve">
<style type="text/css">
	.st0{enable-background:new    ;}
	.st1{fill:#FF7800;}
	.st2{fill:none;stroke:#FF7800;stroke-width:5;stroke-linecap:round;stroke-linejoin:round;}
</style>
<g id="Grupo_552" transform="translate(2.5 2.5)">
	<g id="Grupo_551" transform="translate(25 61)">
		<g class="st0">
			<path class="st1" d="M78.9,91.2c-4.4,4.3-9.5,6.5-15.3,6.5c-7.5,0-13.5-2.6-18-7.7c-4.5-5.1-6.7-12.1-6.7-20.8
				c0-5.5,1.2-10.6,3.6-15.3c2.4-4.6,5.8-8.2,10.1-10.8c4.3-2.6,9.2-3.9,14.6-3.9c5.6,0,10.5,1.4,14.9,4.2c4.3,2.8,7.7,6.8,10.1,12
				c2.4,5.2,3.6,11.2,3.7,18v6.2c0,14.1-3.5,25.2-10.5,33.2c-7,8.1-16.9,12.4-29.8,12.9l-4.1,0.1v-14l3.7-0.1
				C69.8,111.1,77.7,104.2,78.9,91.2z M67.7,84.8c2.7,0,5-0.7,7-2.1c2-1.4,3.4-3.1,4.4-5.1v-6.9c0-5.7-1.1-10.1-3.3-13.2
				c-2.2-3.1-5.1-4.7-8.7-4.7c-3.4,0-6.1,1.5-8.3,4.6c-2.2,3.1-3.3,6.9-3.3,11.6c0,4.6,1.1,8.4,3.2,11.4
				C60.9,83.3,63.8,84.8,67.7,84.8z"/>
		</g>
	</g>
	<g id="Icon_feather-calendar">
		<path id="Trazado_2716" class="st2" d="M20.8,20.8h145.8c11.5,0,20.8,9.3,20.8,20.8v145.8c0,11.5-9.3,20.8-20.8,20.8H20.8
			C9.3,208.3,0,199,0,187.5V41.7C0,30.2,9.3,20.8,20.8,20.8z"/>
		<path id="Trazado_2717" class="st2" d="M135.4,0v41.7"/>
		<path id="Trazado_2718" class="st2" d="M52.1,0v41.7"/>
		<path id="Trazado_2719" class="st2" d="M0,83.3h187.5"/>
	</g>
</g>
</svg>
