<?xml version="1.0" encoding="UTF-8"?>
<svg id="Capa_2" data-name="Capa 2" xmlns="http://www.w3.org/2000/svg" viewBox="0 0 88 88">
  <defs>
    <style>
      .cls-1 {
        isolation: isolate;
      }

      .cls-2 {
        fill: none;
        stroke: #fff;
      }

      .cls-3 {
        fill: #7e80fc;
      }

      .cls-3, .cls-4 {
        stroke-width: 0px;
      }

      .cls-4 {
        fill: #fff;
      }
    </style>
  </defs>
  <g id="Capa_1-2" data-name="Capa 1">
    <g>
      <g id="Grupo_548" data-name="Grupo 548">
        <rect id="Rectángulo_263" data-name="Rectángulo 263" class="cls-3" width="88" height="88" rx="10" ry="10"/>
        <g id="Alojamiento" class="cls-1">
          <g class="cls-1">
            <path class="cls-4" d="M11.6,75h-4.84l-1.1,3h-.94l4.04-10.66h.86l4.04,10.66h-.94l-1.11-3ZM7.04,74.24h4.28l-2.14-5.81-2.14,5.81Z"/>
            <path class="cls-4" d="M15.99,78h-.88v-11.25h.88v11.25Z"/>
            <path class="cls-4" d="M17.89,73.92c0-.76.15-1.45.44-2.06.29-.61.71-1.08,1.25-1.42.54-.34,1.15-.51,1.83-.51,1.05,0,1.91.37,2.56,1.11.65.74.98,1.72.98,2.94v.18c0,.77-.15,1.46-.44,2.07-.3.61-.71,1.08-1.25,1.42s-1.15.5-1.84.5c-1.05,0-1.9-.37-2.56-1.11-.66-.74-.99-1.72-.99-2.94v-.18ZM18.77,74.16c0,.95.25,1.72.74,2.33.49.61,1.13.91,1.93.91s1.43-.3,1.92-.91c.49-.61.74-1.41.74-2.41v-.17c0-.6-.11-1.16-.34-1.66s-.54-.89-.94-1.17c-.41-.28-.87-.41-1.39-.41-.78,0-1.42.31-1.91.92-.49.61-.74,1.42-.74,2.41v.16Z"/>
            <path class="cls-4" d="M27.72,70.08v8.87c0,.73-.18,1.29-.53,1.68s-.87.58-1.55.58c-.26,0-.52-.05-.77-.14v-.72c.23.06.45.1.67.1.87,0,1.3-.5,1.3-1.5v-8.86h.87ZM27.29,67.2c.19,0,.34.06.45.17.11.11.16.25.16.42s-.05.3-.16.42-.26.17-.45.17-.33-.06-.44-.17c-.11-.11-.16-.25-.16-.42s.05-.3.16-.42c.1-.11.25-.17.44-.17Z"/>
            <path class="cls-4" d="M35.2,78c-.09-.25-.14-.62-.17-1.11-.31.4-.7.71-1.18.93-.48.22-.98.33-1.51.33-.76,0-1.38-.21-1.85-.64-.47-.43-.71-.96-.71-1.61,0-.77.32-1.38.96-1.83.64-.45,1.54-.67,2.68-.67h1.59v-.9c0-.57-.17-1.01-.52-1.34-.35-.32-.86-.49-1.53-.49-.61,0-1.12.16-1.52.47-.4.31-.6.69-.6,1.13h-.88c0-.64.29-1.18.88-1.64.59-.46,1.31-.69,2.16-.69s1.58.22,2.09.66c.51.44.77,1.06.79,1.85v3.75c0,.77.08,1.34.24,1.72v.09h-.94ZM32.44,77.37c.59,0,1.11-.14,1.57-.42.46-.28.8-.66,1.01-1.13v-1.74h-1.57c-.87.01-1.56.17-2.05.48-.49.31-.74.74-.74,1.28,0,.45.17.81.49,1.11.33.29.76.44,1.29.44Z"/>
            <path class="cls-4" d="M39.03,70.08l.03,1.29c.29-.48.66-.84,1.1-1.08.44-.24.93-.36,1.46-.36,1.25,0,2.04.51,2.38,1.54.28-.49.66-.87,1.14-1.14.47-.27,1-.4,1.57-.4,1.7,0,2.57.93,2.6,2.78v5.29h-.88v-5.22c0-.71-.16-1.23-.46-1.57-.3-.34-.79-.51-1.47-.51-.63,0-1.16.21-1.6.61-.43.4-.68.88-.73,1.45v5.24h-.88v-5.29c0-.68-.17-1.19-.48-1.52-.32-.33-.8-.5-1.45-.5-.55,0-1.03.16-1.42.47-.4.31-.69.78-.88,1.4v5.43h-.88v-7.92h.84Z"/>
            <path class="cls-4" d="M51.47,67.79c0-.17.05-.3.16-.42.11-.11.25-.17.44-.17s.33.06.44.17c.11.11.17.25.17.42s-.05.3-.17.42c-.11.11-.26.17-.44.17s-.33-.06-.44-.17-.16-.25-.16-.42ZM52.5,78h-.88v-7.92h.88v7.92Z"/>
            <path class="cls-4" d="M57.95,78.15c-.67,0-1.28-.17-1.83-.5-.54-.33-.97-.79-1.27-1.39-.3-.59-.45-1.26-.45-2v-.32c0-.76.15-1.45.44-2.06.29-.61.71-1.09,1.23-1.44.53-.35,1.1-.52,1.71-.52.96,0,1.72.33,2.29.99.56.66.85,1.55.85,2.69v.49h-5.65v.17c0,.9.26,1.65.77,2.25.51.6,1.16.9,1.94.9.47,0,.88-.08,1.24-.26.36-.17.69-.44.98-.82l.55.42c-.64.93-1.58,1.4-2.8,1.4ZM57.79,70.68c-.66,0-1.21.24-1.67.72-.45.48-.73,1.13-.82,1.95h4.75v-.1c-.02-.76-.24-1.38-.65-1.86s-.95-.72-1.61-.72Z"/>
            <path class="cls-4" d="M63.47,70.08l.03,1.35c.3-.49.67-.86,1.11-1.12.44-.26.94-.38,1.47-.38.85,0,1.48.24,1.9.72s.62,1.2.63,2.15v5.2h-.87v-5.21c0-.71-.16-1.24-.45-1.58-.29-.35-.77-.52-1.42-.52-.54,0-1.02.17-1.44.51-.42.34-.73.8-.93,1.37v5.43h-.87v-7.92h.83Z"/>
            <path class="cls-4" d="M72.23,68.05v2.03h1.64v.72h-1.64v5.29c0,.44.08.77.24.98.16.21.42.32.79.32.15,0,.38-.02.71-.07l.04.71c-.23.08-.54.12-.94.12-.6,0-1.04-.17-1.31-.52-.27-.35-.41-.86-.41-1.54v-5.29h-1.46v-.72h1.46v-2.03h.88Z"/>
            <path class="cls-4" d="M75.06,73.92c0-.76.15-1.45.44-2.06.29-.61.71-1.08,1.25-1.42.54-.34,1.15-.51,1.83-.51,1.05,0,1.91.37,2.56,1.11.65.74.98,1.72.98,2.94v.18c0,.77-.15,1.46-.44,2.07-.3.61-.71,1.08-1.25,1.42s-1.15.5-1.84.5c-1.05,0-1.9-.37-2.56-1.11-.66-.74-.99-1.72-.99-2.94v-.18ZM75.94,74.16c0,.95.25,1.72.74,2.33.49.61,1.13.91,1.93.91s1.43-.3,1.92-.91c.49-.61.74-1.41.74-2.41v-.17c0-.6-.11-1.16-.34-1.66s-.54-.89-.94-1.17c-.41-.28-.87-.41-1.39-.41-.78,0-1.42.31-1.91.92-.49.61-.74,1.42-.74,2.41v.16Z"/>
          </g>
          <g class="cls-1">
            <path class="cls-2" d="M11.6,75h-4.84l-1.1,3h-.94l4.04-10.66h.86l4.04,10.66h-.94l-1.11-3ZM7.04,74.24h4.28l-2.14-5.81-2.14,5.81Z"/>
            <path class="cls-2" d="M15.99,78h-.88v-11.25h.88v11.25Z"/>
            <path class="cls-2" d="M17.89,73.92c0-.76.15-1.45.44-2.06.29-.61.71-1.08,1.25-1.42.54-.34,1.15-.51,1.83-.51,1.05,0,1.91.37,2.56,1.11.65.74.98,1.72.98,2.94v.18c0,.77-.15,1.46-.44,2.07-.3.61-.71,1.08-1.25,1.42s-1.15.5-1.84.5c-1.05,0-1.9-.37-2.56-1.11-.66-.74-.99-1.72-.99-2.94v-.18ZM18.77,74.16c0,.95.25,1.72.74,2.33.49.61,1.13.91,1.93.91s1.43-.3,1.92-.91c.49-.61.74-1.41.74-2.41v-.17c0-.6-.11-1.16-.34-1.66s-.54-.89-.94-1.17c-.41-.28-.87-.41-1.39-.41-.78,0-1.42.31-1.91.92-.49.61-.74,1.42-.74,2.41v.16Z"/>
            <path class="cls-2" d="M27.72,70.08v8.87c0,.73-.18,1.29-.53,1.68s-.87.58-1.55.58c-.26,0-.52-.05-.77-.14v-.72c.23.06.45.1.67.1.87,0,1.3-.5,1.3-1.5v-8.86h.87ZM27.29,67.2c.19,0,.34.06.45.17.11.11.16.25.16.42s-.05.3-.16.42-.26.17-.45.17-.33-.06-.44-.17c-.11-.11-.16-.25-.16-.42s.05-.3.16-.42c.1-.11.25-.17.44-.17Z"/>
            <path class="cls-2" d="M35.2,78c-.09-.25-.14-.62-.17-1.11-.31.4-.7.71-1.18.93-.48.22-.98.33-1.51.33-.76,0-1.38-.21-1.85-.64-.47-.43-.71-.96-.71-1.61,0-.77.32-1.38.96-1.83.64-.45,1.54-.67,2.68-.67h1.59v-.9c0-.57-.17-1.01-.52-1.34-.35-.32-.86-.49-1.53-.49-.61,0-1.12.16-1.52.47-.4.31-.6.69-.6,1.13h-.88c0-.64.29-1.18.88-1.64.59-.46,1.31-.69,2.16-.69s1.58.22,2.09.66c.51.44.77,1.06.79,1.85v3.75c0,.77.08,1.34.24,1.72v.09h-.94ZM32.44,77.37c.59,0,1.11-.14,1.57-.42.46-.28.8-.66,1.01-1.13v-1.74h-1.57c-.87.01-1.56.17-2.05.48-.49.31-.74.74-.74,1.28,0,.45.17.81.49,1.11.33.29.76.44,1.29.44Z"/>
            <path class="cls-2" d="M39.03,70.08l.03,1.29c.29-.48.66-.84,1.1-1.08.44-.24.93-.36,1.46-.36,1.25,0,2.04.51,2.38,1.54.28-.49.66-.87,1.14-1.14.47-.27,1-.4,1.57-.4,1.7,0,2.57.93,2.6,2.78v5.29h-.88v-5.22c0-.71-.16-1.23-.46-1.57-.3-.34-.79-.51-1.47-.51-.63,0-1.16.21-1.6.61-.43.4-.68.88-.73,1.45v5.24h-.88v-5.29c0-.68-.17-1.19-.48-1.52-.32-.33-.8-.5-1.45-.5-.55,0-1.03.16-1.42.47-.4.31-.69.78-.88,1.4v5.43h-.88v-7.92h.84Z"/>
            <path class="cls-2" d="M51.47,67.79c0-.17.05-.3.16-.42.11-.11.25-.17.44-.17s.33.06.44.17c.11.11.17.25.17.42s-.05.3-.17.42c-.11.11-.26.17-.44.17s-.33-.06-.44-.17-.16-.25-.16-.42ZM52.5,78h-.88v-7.92h.88v7.92Z"/>
            <path class="cls-2" d="M57.95,78.15c-.67,0-1.28-.17-1.83-.5-.54-.33-.97-.79-1.27-1.39-.3-.59-.45-1.26-.45-2v-.32c0-.76.15-1.45.44-2.06.29-.61.71-1.09,1.23-1.44.53-.35,1.1-.52,1.71-.52.96,0,1.72.33,2.29.99.56.66.85,1.55.85,2.69v.49h-5.65v.17c0,.9.26,1.65.77,2.25.51.6,1.16.9,1.94.9.47,0,.88-.08,1.24-.26.36-.17.69-.44.98-.82l.55.42c-.64.93-1.58,1.4-2.8,1.4ZM57.79,70.68c-.66,0-1.21.24-1.67.72-.45.48-.73,1.13-.82,1.95h4.75v-.1c-.02-.76-.24-1.38-.65-1.86s-.95-.72-1.61-.72Z"/>
            <path class="cls-2" d="M63.47,70.08l.03,1.35c.3-.49.67-.86,1.11-1.12.44-.26.94-.38,1.47-.38.85,0,1.48.24,1.9.72s.62,1.2.63,2.15v5.2h-.87v-5.21c0-.71-.16-1.24-.45-1.58-.29-.35-.77-.52-1.42-.52-.54,0-1.02.17-1.44.51-.42.34-.73.8-.93,1.37v5.43h-.87v-7.92h.83Z"/>
            <path class="cls-2" d="M72.23,68.05v2.03h1.64v.72h-1.64v5.29c0,.44.08.77.24.98.16.21.42.32.79.32.15,0,.38-.02.71-.07l.04.71c-.23.08-.54.12-.94.12-.6,0-1.04-.17-1.31-.52-.27-.35-.41-.86-.41-1.54v-5.29h-1.46v-.72h1.46v-2.03h.88Z"/>
            <path class="cls-2" d="M75.06,73.92c0-.76.15-1.45.44-2.06.29-.61.71-1.08,1.25-1.42.54-.34,1.15-.51,1.83-.51,1.05,0,1.91.37,2.56,1.11.65.74.98,1.72.98,2.94v.18c0,.77-.15,1.46-.44,2.07-.3.61-.71,1.08-1.25,1.42s-1.15.5-1.84.5c-1.05,0-1.9-.37-2.56-1.11-.66-.74-.99-1.72-.99-2.94v-.18ZM75.94,74.16c0,.95.25,1.72.74,2.33.49.61,1.13.91,1.93.91s1.43-.3,1.92-.91c.49-.61.74-1.41.74-2.41v-.17c0-.6-.11-1.16-.34-1.66s-.54-.89-.94-1.17c-.41-.28-.87-.41-1.39-.41-.78,0-1.42.31-1.91.92-.49.61-.74,1.42-.74,2.41v.16Z"/>
          </g>
        </g>
      </g>
      <path id="Icon_metro-hotel" data-name="Icon metro-hotel" class="cls-4" d="M31.24,36.58c3.85,0,6.97-3.12,6.97-6.97s-3.12-6.97-6.97-6.97-6.97,3.12-6.97,6.97h0c0,3.85,3.12,6.96,6.97,6.97ZM59.11,22.64h-18.58v16.26h-18.58v-20.9h-4.64v34.83h4.64v-6.97h41.8v6.97h4.65v-20.9c0-5.13-4.15-9.29-9.28-9.29,0,0,0,0,0,0h0Z"/>
    </g>
  </g>
</svg>