<?xml version="1.0" encoding="UTF-8"?>
<svg id="Capa_2" data-name="Capa 2" xmlns="http://www.w3.org/2000/svg" viewBox="0 0 809 274.5">
  <defs>
    <style>
      .cls-1 {
        isolation: isolate;
      }

      .cls-2 {
        fill: #878787;
      }

      .cls-2, .cls-3, .cls-4, .cls-5, .cls-6 {
        stroke-width: 0px;
      }

      .cls-3 {
        fill: #ff7800;
      }

      .cls-4 {
        fill: #ffe800;
      }

      .cls-5 {
        fill: red;
      }

      .cls-6 {
        fill: #0004ff;
      }
    </style>
  </defs>
  <g id="Capa_1-2" data-name="Capa 1">
    <g>
      <path class="cls-6" d="M222.17,150.33c19.71-7.13,40.92,1.58,47.38,19.44,6.46,17.86-4.29,38.12-24,45.24-19.71,7.13-40.93-1.58-47.38-19.44-6.46-17.86,4.29-38.12,24-45.24"/>
      <path class="cls-3" d="M200.5,124.07c32.1-11.6,66.65,2.57,77.17,31.65,10.52,29.09-6.98,62.07-39.08,73.68-32.1,11.61-66.65-2.57-77.16-31.65-10.52-29.09,6.98-62.07,39.08-73.68M188.7,91.42c-52,18.8-80.34,72.23-63.31,119.35h0c17.03,47.12,73,70.08,125,51.28h0c52-18.8,80.34-72.23,63.31-119.35h0c-17.04-47.12-73-70.08-124.99-51.28h0Z"/>
      <path class="cls-5" d="M221.35,70.84S161.35,19.52,86.9,0c-19.52,18.07-23.13,21.69-42.65,44.09,102.37,8.29,177.1,26.75,177.1,26.75"/>
      <path class="cls-4" d="M166.38,86.22s-77.7-14.02-151.82,6.71C6.83,118.39,5.54,123.33,0,152.53c92.56-44.52,166.38-66.31,166.38-66.31"/>
      <path class="cls-5" d="M125.19,130.08S51.87,159.38,0,216.25c6.94,25.68,8.46,30.56,19.24,58.25,54.89-86.81,105.95-144.41,105.95-144.41"/>
    </g>
    <g>
      <g>
        <path class="cls-2" d="M362.46.34h17.72c12.67,0,18.84,5.49,18.84,17.04v2.92c0,10.2-3.81,13.34-7.29,14.69,3.36,1.46,8.52,4.26,8.52,14.69v5.94c0,13.01-5.49,19.51-19.17,19.51h-18.62V.34ZM378.72,29.72c4.82,0,6.5-1.57,6.5-7.29v-3.81c0-4.82-1.57-6.95-6.17-6.95h-2.69v18.05h2.35ZM376.36,63.93h2.92c5.16,0,6.39-2.35,6.39-7.96v-6.84c0-5.83-1.46-8.3-7.29-8.3h-2.02v23.1Z"/>
        <path class="cls-2" d="M409.22.34h14.35v62.24h18.17l-1.35,12.56h-31.17V.34Z"/>
        <path class="cls-2" d="M477.74,42.06h-15.36v20.41h18.05l-1.68,12.67h-30.84V.34h30.73v12.67h-16.26v16.37h15.36v12.67Z"/>
        <path class="cls-2" d="M487.72,75.14V.34h15.92l7.74,32.86c1.12,4.49,2.13,10.09,2.69,13.46h.34c-.79-9.98-1.23-23.55-1.23-34.09V.34h13.34v74.8h-16.15l-8.07-37.23c-.79-3.7-1.57-8.63-2.13-10.99h-.34c.56,8.75,1.01,23.66,1.01,35.44v12.78h-13.12Z"/>
        <path class="cls-2" d="M537.4.34h17.72c15.36,0,20.63,6.95,20.63,22.43v28.15c0,12.9-2.69,24.22-19.74,24.22h-18.62V.34ZM551.75,63.59h2.8c5.72,0,6.62-3.7,6.62-9.53V20.53c0-5.49-1.23-8.52-6.73-8.52h-2.69v51.58Z"/>
        <path class="cls-2" d="M599.86.34v74.8h-14.35V.34h14.35Z"/>
        <path class="cls-2" d="M610.85.34h17.72c12.67,0,18.84,5.49,18.84,17.04v2.92c0,10.2-3.81,13.34-7.29,14.69,3.36,1.46,8.52,4.26,8.52,14.69v5.94c0,13.01-5.49,19.51-19.17,19.51h-18.62V.34ZM627.11,29.72c4.82,0,6.5-1.57,6.5-7.29v-3.81c0-4.82-1.57-6.95-6.17-6.95h-2.69v18.05h2.35ZM624.75,63.93h2.92c5.16,0,6.39-2.35,6.39-7.96v-6.84c0-5.83-1.46-8.3-7.29-8.3h-2.02v23.1Z"/>
        <path class="cls-2" d="M687.33,42.06h-15.36v20.41h18.05l-1.68,12.67h-30.84V.34h30.73v12.67h-16.26v16.37h15.36v12.67Z"/>
        <path class="cls-2" d="M697.31.34h18.62c12.56,0,18.73,5.49,18.73,18.5v2.69c0,10.77-4.26,13.91-7.4,15.36,4.6,2.24,6.84,5.72,6.84,16.15,0,7.18-.11,18.17.45,22.09h-13.91c-.9-3.36-.78-13.12-.78-22.65,0-8.41-1.01-9.87-6.5-9.87h-1.68v32.52h-14.35V.34ZM711.66,31.29h1.79c4.82,0,6.84-1.57,6.84-8.52v-3.59c0-5.05-1.01-7.51-6.39-7.51h-2.24v19.62Z"/>
        <path class="cls-2" d="M758.76.34v74.8h-14.35V.34h14.35Z"/>
        <path class="cls-2" d="M782.64,57.31l-1.79,17.83h-14.69L776.7.34h21.42l10.88,74.8h-14.91l-2.13-17.83h-9.31ZM790.72,44.64c-1.01-9.53-2.47-24.11-3.25-31.29h-.56c-.22,5.16-2.02,21.98-3.03,31.29h6.84Z"/>
      </g>
      <g class="cls-1">
        <path class="cls-2" d="M362.46,268.3v-3.97c0-33.64,14.06-54.3,32.31-77.88,17.05-21.99,22.74-28.08,22.74-46.89,0-12.71-1.5-18.28-10.17-18.28-7.78,0-10.77,5.56-10.77,17.22v10.07h-34.4v-9.27c0-20.4,6.88-45.3,46.97-45.3,35.6,0,46.07,19.6,46.07,45.83s-10.17,38.67-28.42,61.19c-9.57,11.39-20.64,26.75-22.14,38.41h54.15l-4.49,28.87h-91.84Z"/>
        <path class="cls-2" d="M576.06,140.62v81.59c0,26.75-11.07,48.47-50.56,48.47s-48.17-22.52-48.17-48.47v-80c0-30.99,17.35-48.21,49.66-48.21s49.06,17.22,49.06,46.62ZM515.03,137.97v88.21c0,10.07,2.99,15.63,11.67,15.63s11.37-6.09,11.37-16.16v-88.21c0-8.48-2.69-14.57-11.37-14.57s-11.67,5.56-11.67,15.1Z"/>
        <path class="cls-2" d="M595.19,268.3v-3.97c0-33.64,14.06-54.3,32.31-77.88,17.05-21.99,22.74-28.08,22.74-46.89,0-12.71-1.5-18.28-10.17-18.28-7.78,0-10.77,5.56-10.77,17.22v10.07h-34.4v-9.27c0-20.4,6.88-45.3,46.97-45.3,35.6,0,46.07,19.6,46.07,45.83s-10.17,38.67-28.42,61.19c-9.57,11.39-20.64,26.75-22.14,38.41h54.15l-4.49,28.87h-91.84Z"/>
        <path class="cls-2" d="M757.04,268.3v-39.73h-53.55v-25.96l35.3-106.22h53.55v104.9h12.86l-2.69,27.28h-10.17v39.73h-35.3ZM757.04,201.28v-19.6c0-18.81,1.2-40.79,1.5-55.89h-.9c-5.98,23.05-13.46,52.18-20.04,75.49h19.45Z"/>
      </g>
    </g>
  </g>
</svg>