<?xml version="1.0" encoding="UTF-8" standalone="no"?>
<!DOCTYPE svg PUBLIC "-//W3C//DTD SVG 1.1//EN" "http://www.w3.org/Graphics/SVG/1.1/DTD/svg11.dtd">
<svg width="100%" height="100%" viewBox="0 0 48 48" version="1.1" xmlns="http://www.w3.org/2000/svg" xmlns:xlink="http://www.w3.org/1999/xlink" xml:space="preserve" xmlns:serif="http://www.serif.com/" style="fill-rule:evenodd;clip-rule:evenodd;stroke-linejoin:round;stroke-miterlimit:2;">
    <path d="M12,6.986C9.256,6.986 7,9.243 7,11.986C7,14.73 9.256,16.986 12,16.986L36,16.986C38.744,16.986 41,14.73 41,11.986C41,9.243 38.744,6.986 36,6.986L12,6.986ZM12,9.986L36,9.986C37.122,9.986 38,10.864 38,11.986C38,13.109 37.122,13.986 36,13.986L12,13.986C10.878,13.986 10,13.109 10,11.986C10,10.864 10.878,9.986 12,9.986ZM12,18.986C9.256,18.986 7,21.243 7,23.986C7,26.73 9.256,28.986 12,28.986L36,28.986C38.744,28.986 41,26.73 41,23.986C41,21.243 38.744,18.986 36,18.986L12,18.986ZM12,21.986L36,21.986C37.122,21.986 38,22.864 38,23.986C38,25.109 37.122,25.986 36,25.986L12,25.986C10.878,25.986 10,25.109 10,23.986C10,22.864 10.878,21.986 12,21.986ZM12,30.986C9.256,30.986 7,33.243 7,35.986C7,38.73 9.256,40.986 12,40.986L36,40.986C38.744,40.986 41,38.73 41,35.986C41,33.243 38.744,30.986 36,30.986L12,30.986ZM12,33.986L36,33.986C37.122,33.986 38,34.864 38,35.986C38,37.109 37.122,37.986 36,37.986L12,37.986C10.878,37.986 10,37.109 10,35.986C10,34.864 10.878,33.986 12,33.986Z" style="fill:rgb(255,120,0);fill-rule:nonzero;"/>
</svg>
