<svg id="Grupo_2" data-name="Grupo 2" xmlns="http://www.w3.org/2000/svg" xmlns:xlink="http://www.w3.org/1999/xlink" width="30.16" height="30.16" viewBox="0 0 30.16 30.16">
  <defs>
    <clipPath id="clip-path">
      <rect id="Rectángulo_5" data-name="Rectángulo 5" width="30.16" height="30.16" fill="none" stroke="#fff" stroke-width="1"/>
    </clipPath>
  </defs>
  <g id="Grupo_3" data-name="Grupo 3" clip-path="url(#clip-path)">
    <path id="Trazado_3" data-name="Trazado 3" d="M13.335,25.918h0A12.584,12.584,0,0,1,.75,13.335h0A12.708,12.708,0,0,1,5.667,3.354,12.319,12.319,0,0,1,13.335.75,12.584,12.584,0,0,1,25.919,13.334h0A12.584,12.584,0,0,1,13.335,25.918Z" transform="translate(1.746 1.746)" fill="none" stroke="#fff" stroke-miterlimit="10" stroke-width="1.5"/>
    <path id="Trazado_4" data-name="Trazado 4" d="M16.247,10.589c1.842,0,2.06.007,2.788.04a3.81,3.81,0,0,1,1.281.237,2.154,2.154,0,0,1,.794.516,2.126,2.126,0,0,1,.515.794,3.8,3.8,0,0,1,.238,1.281c.033.727.041.946.041,2.789s-.008,2.061-.041,2.788a3.8,3.8,0,0,1-.238,1.281,2.121,2.121,0,0,1-.515.794,2.154,2.154,0,0,1-.794.516,3.81,3.81,0,0,1-1.281.237c-.728.033-.946.04-2.788.04s-2.061-.007-2.789-.04a3.81,3.81,0,0,1-1.281-.237,2.151,2.151,0,0,1-.794-.516,2.123,2.123,0,0,1-.516-.794,3.814,3.814,0,0,1-.239-1.281c-.032-.727-.039-.946-.039-2.788s.007-2.061.039-2.789a3.814,3.814,0,0,1,.239-1.281,2.128,2.128,0,0,1,.516-.794,2.151,2.151,0,0,1,.794-.516,3.81,3.81,0,0,1,1.281-.237c.727-.033.946-.04,2.789-.04m0-1.243c-1.875,0-2.109.008-2.845.042a5.066,5.066,0,0,0-1.675.321,3.527,3.527,0,0,0-2.018,2.018A5.048,5.048,0,0,0,9.388,13.4c-.033.736-.041.971-.041,2.845s.008,2.109.041,2.845a5.056,5.056,0,0,0,.321,1.675,3.528,3.528,0,0,0,2.018,2.018A5.049,5.049,0,0,0,13.4,23.1c.735.034.97.042,2.845.042s2.108-.008,2.845-.042a5.048,5.048,0,0,0,1.674-.321,3.528,3.528,0,0,0,2.018-2.018,5.071,5.071,0,0,0,.321-1.675c.032-.736.041-.971.041-2.845s-.009-2.109-.041-2.845a5.063,5.063,0,0,0-.321-1.674,3.527,3.527,0,0,0-2.018-2.018,5.065,5.065,0,0,0-1.674-.321c-.737-.034-.971-.042-2.845-.042" transform="translate(-1.166 -1.166)" fill="#fff"/>
    <path id="Trazado_5" data-name="Trazado 5" d="M17.966,14.423a3.543,3.543,0,1,0,3.543,3.543,3.543,3.543,0,0,0-3.543-3.543m0,5.843a2.3,2.3,0,1,1,2.3-2.3,2.3,2.3,0,0,1-2.3,2.3" transform="translate(-2.886 -2.885)" fill="#fff"/>
    <path id="Trazado_6" data-name="Trazado 6" d="M25.755,13.786a.828.828,0,1,1-.828-.828.828.828,0,0,1,.828.828" transform="translate(-6.163 -2.389)" fill="#fff"/>
  </g>
</svg>
