<?xml version="1.0" encoding="UTF-8"?>
<svg id="Capa_2" data-name="Capa 2" xmlns="http://www.w3.org/2000/svg" viewBox="0 0 88 88">
  <defs>
    <style>
      .cls-1 {
        stroke-linecap: round;
        stroke-linejoin: round;
        stroke-width: 5px;
      }

      .cls-1, .cls-2 {
        fill: none;
        stroke: #fff;
      }

      .cls-3 {
        isolation: isolate;
      }

      .cls-4 {
        fill: #7e80fc;
      }

      .cls-4, .cls-5 {
        stroke-width: 0px;
      }

      .cls-5 {
        fill: #fff;
      }
    </style>
  </defs>
  <g id="Capa_1-2" data-name="Capa 1">
    <g>
      <rect id="Rectángulo_263" data-name="Rectángulo 263" class="cls-4" width="88" height="88" rx="10" ry="10"/>
      <g id="Icon_feather-map" data-name="Icon feather-map">
        <path id="Trazado_2722" data-name="Trazado 2722" class="cls-1" d="M19,20.83v34.72l15.19-8.68,17.36,8.68,15.19-8.68V12.15l-15.19,8.68-17.36-8.68-15.19,8.68Z"/>
        <path id="Trazado_2723" data-name="Trazado 2723" class="cls-1" d="M34.19,12.15v34.72"/>
        <path id="Trazado_2724" data-name="Trazado 2724" class="cls-1" d="M51.55,20.83v34.72"/>
      </g>
      <g id="Mapa" class="cls-3">
        <g class="cls-3">
          <path class="cls-5" d="M27.36,67.34l3.93,9.41,3.95-9.41h1.2v10.66h-.9v-4.64l.07-4.76-3.97,9.4h-.7l-3.96-9.37.07,4.69v4.67h-.9v-10.66h1.19Z"/>
          <path class="cls-5" d="M43.94,78c-.09-.25-.14-.62-.17-1.11-.31.4-.7.71-1.18.93-.48.22-.98.33-1.51.33-.76,0-1.38-.21-1.85-.64-.47-.43-.71-.96-.71-1.61,0-.77.32-1.38.96-1.83.64-.45,1.54-.67,2.68-.67h1.59v-.9c0-.57-.17-1.01-.52-1.34-.35-.32-.86-.49-1.53-.49-.61,0-1.12.16-1.52.47-.4.31-.6.69-.6,1.13h-.88c0-.64.29-1.18.88-1.64.59-.46,1.31-.69,2.16-.69s1.58.22,2.09.66c.51.44.77,1.06.79,1.85v3.75c0,.77.08,1.34.24,1.72v.09h-.94ZM41.19,77.37c.59,0,1.11-.14,1.57-.42.46-.28.8-.66,1.01-1.13v-1.74h-1.57c-.87.01-1.56.17-2.05.48-.49.31-.74.74-.74,1.28,0,.45.17.81.49,1.11.33.29.76.44,1.29.44Z"/>
          <path class="cls-5" d="M53.35,74.12c0,1.24-.27,2.22-.82,2.94-.55.73-1.28,1.09-2.2,1.09-1.08,0-1.91-.38-2.49-1.14v4.04h-.87v-10.97h.81l.04,1.12c.57-.84,1.4-1.27,2.48-1.27.95,0,1.69.36,2.23,1.08.54.72.81,1.71.81,2.99v.12ZM52.47,73.96c0-1.01-.21-1.81-.62-2.4s-.99-.88-1.74-.88c-.54,0-1,.13-1.38.39-.39.26-.68.64-.89,1.13v3.8c.21.45.51.8.9,1.04s.85.36,1.38.36c.74,0,1.31-.29,1.72-.88.41-.59.62-1.44.62-2.56Z"/>
          <path class="cls-5" d="M60.29,78c-.09-.25-.14-.62-.17-1.11-.31.4-.7.71-1.18.93-.48.22-.98.33-1.51.33-.76,0-1.38-.21-1.85-.64-.47-.43-.71-.96-.71-1.61,0-.77.32-1.38.96-1.83.64-.45,1.54-.67,2.68-.67h1.59v-.9c0-.57-.17-1.01-.52-1.34-.35-.32-.86-.49-1.53-.49-.61,0-1.12.16-1.52.47-.4.31-.6.69-.6,1.13h-.88c0-.64.29-1.18.88-1.64.59-.46,1.31-.69,2.16-.69s1.58.22,2.09.66c.51.44.77,1.06.79,1.85v3.75c0,.77.08,1.34.24,1.72v.09h-.94ZM57.54,77.37c.59,0,1.11-.14,1.57-.42.46-.28.8-.66,1.01-1.13v-1.74h-1.57c-.87.01-1.56.17-2.05.48-.49.31-.74.74-.74,1.28,0,.45.17.81.49,1.11.33.29.76.44,1.29.44Z"/>
        </g>
        <g class="cls-3">
          <path class="cls-2" d="M27.36,67.34l3.93,9.41,3.95-9.41h1.2v10.66h-.9v-4.64l.07-4.76-3.97,9.4h-.7l-3.96-9.37.07,4.69v4.67h-.9v-10.66h1.19Z"/>
          <path class="cls-2" d="M43.94,78c-.09-.25-.14-.62-.17-1.11-.31.4-.7.71-1.18.93-.48.22-.98.33-1.51.33-.76,0-1.38-.21-1.85-.64-.47-.43-.71-.96-.71-1.61,0-.77.32-1.38.96-1.83.64-.45,1.54-.67,2.68-.67h1.59v-.9c0-.57-.17-1.01-.52-1.34-.35-.32-.86-.49-1.53-.49-.61,0-1.12.16-1.52.47-.4.31-.6.69-.6,1.13h-.88c0-.64.29-1.18.88-1.64.59-.46,1.31-.69,2.16-.69s1.58.22,2.09.66c.51.44.77,1.06.79,1.85v3.75c0,.77.08,1.34.24,1.72v.09h-.94ZM41.19,77.37c.59,0,1.11-.14,1.57-.42.46-.28.8-.66,1.01-1.13v-1.74h-1.57c-.87.01-1.56.17-2.05.48-.49.31-.74.74-.74,1.28,0,.45.17.81.49,1.11.33.29.76.44,1.29.44Z"/>
          <path class="cls-2" d="M53.35,74.12c0,1.24-.27,2.22-.82,2.94-.55.73-1.28,1.09-2.2,1.09-1.08,0-1.91-.38-2.49-1.14v4.04h-.87v-10.97h.81l.04,1.12c.57-.84,1.4-1.27,2.48-1.27.95,0,1.69.36,2.23,1.08.54.72.81,1.71.81,2.99v.12ZM52.47,73.96c0-1.01-.21-1.81-.62-2.4s-.99-.88-1.74-.88c-.54,0-1,.13-1.38.39-.39.26-.68.64-.89,1.13v3.8c.21.45.51.8.9,1.04s.85.36,1.38.36c.74,0,1.31-.29,1.72-.88.41-.59.62-1.44.62-2.56Z"/>
          <path class="cls-2" d="M60.29,78c-.09-.25-.14-.62-.17-1.11-.31.4-.7.71-1.18.93-.48.22-.98.33-1.51.33-.76,0-1.38-.21-1.85-.64-.47-.43-.71-.96-.71-1.61,0-.77.32-1.38.96-1.83.64-.45,1.54-.67,2.68-.67h1.59v-.9c0-.57-.17-1.01-.52-1.34-.35-.32-.86-.49-1.53-.49-.61,0-1.12.16-1.52.47-.4.31-.6.69-.6,1.13h-.88c0-.64.29-1.18.88-1.64.59-.46,1.31-.69,2.16-.69s1.58.22,2.09.66c.51.44.77,1.06.79,1.85v3.75c0,.77.08,1.34.24,1.72v.09h-.94ZM57.54,77.37c.59,0,1.11-.14,1.57-.42.46-.28.8-.66,1.01-1.13v-1.74h-1.57c-.87.01-1.56.17-2.05.48-.49.31-.74.74-.74,1.28,0,.45.17.81.49,1.11.33.29.76.44,1.29.44Z"/>
        </g>
      </g>
    </g>
  </g>
</svg>