<?xml version="1.0" encoding="UTF-8"?>
<svg id="Capa_2" data-name="Capa 2" xmlns="http://www.w3.org/2000/svg" xmlns:xlink="http://www.w3.org/1999/xlink" viewBox="0 0 495.9 300.02">
  <defs>
    <style>
      .cls-1 {
        clip-path: url(#clippath);
      }

      .cls-2 {
        fill: none;
      }

      .cls-2, .cls-3 {
        stroke-width: 0px;
      }

      .cls-3 {
        fill: #bebebe;
      }
    </style>
    <clipPath id="clippath">
      <rect class="cls-2" width="495.9" height="300.02"/>
    </clipPath>
  </defs>
  <g id="Capa_1-2" data-name="Capa 1">
    <g id="Grupo_544" data-name="Grupo 544">
      <g class="cls-1">
        <g id="Grupo_543" data-name="Grupo 543">
          <path id="Trazado_2698" data-name="Trazado 2698" class="cls-3" d="M.33,0h19.66c14.06,0,20.91,6.1,20.91,18.92v3.24c0,11.33-4.23,14.81-8.09,16.3,3.74,1.62,9.46,4.73,9.46,16.3v6.6c0,14.44-6.1,21.65-21.28,21.65H.33V0ZM18.37,32.61c5.35,0,7.22-1.74,7.22-8.09v-4.23c0-5.35-1.74-7.72-6.84-7.72h-2.99v20.03h2.61ZM15.76,70.56h3.24c5.72,0,7.1-2.61,7.1-8.83v-7.59c0-6.47-1.62-9.21-8.09-9.21h-2.25v25.64Z"/>
          <path id="Trazado_2699" data-name="Trazado 2699" class="cls-3" d="M52.22,0h15.93v69.07h20.16l-1.49,13.94h-34.6V0Z"/>
          <path id="Trazado_2700" data-name="Trazado 2700" class="cls-3" d="M128.27,46.3h-17.05v22.65h20.04l-1.87,14.06h-34.22V0h34.1v14.06h-18.05v18.17h17.05v14.07Z"/>
          <path id="Trazado_2701" data-name="Trazado 2701" class="cls-3" d="M139.34,83.01V0h17.67l8.59,36.46c1.24,4.98,2.37,11.2,2.99,14.93h.37c-.87-11.08-1.37-26.14-1.37-37.83V0h14.81v83.01h-17.92l-8.96-41.32c-.87-4.11-1.74-9.58-2.37-12.2h-.37c.62,9.71,1.12,26.26,1.12,39.33v14.19h-14.56Z"/>
          <path id="Trazado_2702" data-name="Trazado 2702" class="cls-3" d="M194.48,0h19.66c17.05,0,22.9,7.72,22.9,24.89v31.24c0,14.31-2.99,26.88-21.9,26.88h-20.66V0ZM210.41,70.19h3.11c6.35,0,7.34-4.11,7.34-10.58V22.4c0-6.1-1.37-9.46-7.47-9.46h-2.99v57.25Z"/>
          <rect id="Rectángulo_256" data-name="Rectángulo 256" class="cls-3" x="247.87" width="15.93" height="83.01"/>
          <path id="Trazado_2703" data-name="Trazado 2703" class="cls-3" d="M275.99,0h19.66c14.06,0,20.91,6.1,20.91,18.92v3.24c0,11.33-4.23,14.81-8.09,16.3,3.73,1.62,9.46,4.73,9.46,16.3v6.6c0,14.44-6.1,21.65-21.28,21.65h-20.66V0ZM294.04,32.61c5.35,0,7.22-1.74,7.22-8.09v-4.23c0-5.35-1.74-7.72-6.84-7.72h-2.99v20.03h2.61ZM291.43,70.56h3.23c5.72,0,7.1-2.61,7.1-8.83v-7.59c0-6.47-1.62-9.21-8.09-9.21h-2.24v25.64Z"/>
          <path id="Trazado_2704" data-name="Trazado 2704" class="cls-3" d="M360.87,46.3h-17.05v22.65h20.04l-1.87,14.06h-34.22V0h34.1v14.06h-18.05v18.17h17.05v14.07Z"/>
          <path id="Trazado_2705" data-name="Trazado 2705" class="cls-3" d="M371.95,0h20.66c13.94,0,20.78,6.1,20.78,20.53v2.99c0,11.95-4.73,15.43-8.21,17.05,5.1,2.49,7.59,6.35,7.59,17.92,0,7.96-.12,20.16.5,24.52h-15.43c-1-3.74-.87-14.56-.87-25.14,0-9.33-1.12-10.95-7.22-10.95h-1.87v36.09h-15.93V0ZM387.88,34.35h1.99c5.35,0,7.59-1.74,7.59-9.46v-3.98c0-5.6-1.12-8.34-7.09-8.34h-2.49v21.78Z"/>
          <path id="Trazado_2743" data-name="Trazado 2743" class="cls-3" d="M424.22,0h15.93v83.01h-15.93V0Z"/>
          <path id="Trazado_2706" data-name="Trazado 2706" class="cls-3" d="M466.66,63.22l-1.99,19.79h-16.3L460.06,0h23.77l12.07,83.01h-16.56l-2.36-19.79h-10.33ZM475.62,49.16c-1.12-10.58-2.74-26.76-3.61-34.72h-.62c-.25,5.73-2.24,24.39-3.36,34.72h7.59Z"/>
          <path id="Trazado_2707" data-name="Trazado 2707" class="cls-3" d="M.33,297.38v-4.41c0-37.33,15.6-60.26,35.86-86.43,18.92-24.4,25.23-31.16,25.23-52.04,0-14.11-1.66-20.29-11.29-20.29-8.63,0-11.95,6.17-11.95,19.11v11.17H0v-10.29c0-22.64,7.64-50.27,52.13-50.27,39.51,0,51.13,21.75,51.13,50.86s-11.29,42.92-31.54,67.91c-10.62,12.64-22.91,29.69-24.57,42.63h60.1l-4.98,32.04H.33Z"/>
          <path id="Trazado_2708" data-name="Trazado 2708" class="cls-3" d="M237.38,155.68v90.55c0,29.69-12.29,53.8-56.11,53.8s-53.46-24.99-53.46-53.8v-88.78c0-34.4,19.26-53.5,55.11-53.5s54.45,19.11,54.45,51.74M169.65,152.74v97.9c0,11.17,3.32,17.35,12.95,17.35s12.62-6.76,12.62-17.93v-97.9c0-9.41-2.99-16.17-12.62-16.17s-12.95,6.17-12.95,16.76"/>
          <path id="Trazado_2709" data-name="Trazado 2709" class="cls-3" d="M258.62,297.38v-4.41c0-37.33,15.6-60.26,35.86-86.43,18.92-24.4,25.23-31.16,25.23-52.04,0-14.11-1.66-20.29-11.29-20.29-8.63,0-11.95,6.17-11.95,19.11v11.17h-38.18v-10.29c0-22.64,7.64-50.27,52.13-50.27,39.51,0,51.13,21.75,51.13,50.86s-11.29,42.92-31.54,67.91c-10.62,12.64-22.91,29.69-24.57,42.63h60.09l-4.98,32.04h-101.93Z"/>
          <path id="Trazado_2710" data-name="Trazado 2710" class="cls-3" d="M438.24,297.38v-44.1h-59.43v-28.81l39.18-117.88h59.43v116.42h14.28l-2.99,30.28h-11.29v44.1h-39.18ZM438.24,223v-21.75c0-20.87,1.33-45.27,1.66-62.03h-1c-6.64,25.58-14.94,57.91-22.24,83.79h21.58Z"/>
        </g>
      </g>
    </g>
  </g>
</svg>