<svg xmlns="http://www.w3.org/2000/svg" xmlns:xlink="http://www.w3.org/1999/xlink" width="30.16" height="30.16" viewBox="0 0 30.16 30.16">
  <defs>
    <clipPath id="clip-path">
      <rect id="Rectángulo_5" data-name="Rectángulo 5" width="30.16" height="30.16" fill="none" stroke="#fff" stroke-width="1"/>
    </clipPath>
  </defs>
  <g id="Grupo_610" data-name="Grupo 610" transform="translate(-986.42 -28.696)">
    <path id="Icon_simple-tiktok" data-name="Icon simple-tiktok" d="M8.871.012C9.649,0,10.421.006,11.192,0a3.7,3.7,0,0,0,1.039,2.476,4.187,4.187,0,0,0,2.518,1.063V5.932a6.355,6.355,0,0,1-2.494-.576,7.336,7.336,0,0,1-.962-.552c-.006,1.734.006,3.468-.012,5.2a4.535,4.535,0,0,1-.8,2.339,4.424,4.424,0,0,1-3.509,1.906,4.33,4.33,0,0,1-2.423-.612,4.478,4.478,0,0,1-2.167-3.39c-.012-.3-.018-.594-.006-.885A4.47,4.47,0,0,1,7.559,5.391c.012.879-.024,1.758-.024,2.636a2.037,2.037,0,0,0-2.6,1.259,2.355,2.355,0,0,0-.083.956,2.021,2.021,0,0,0,2.078,1.7,2,2,0,0,0,1.645-.956,1.37,1.37,0,0,0,.243-.629c.059-1.063.036-2.12.042-3.183.006-2.393-.006-4.78.012-7.167Z" transform="translate(992.941 36.651)" fill="#fff"/>
    <g id="Grupo_609" data-name="Grupo 609" transform="translate(986.42 28.696)">
      <g id="Grupo_3" data-name="Grupo 3" clip-path="url(#clip-path)">
        <path id="Trazado_3" data-name="Trazado 3" d="M13.335,25.918h0A12.584,12.584,0,0,1,.75,13.335h0A12.708,12.708,0,0,1,5.667,3.354,12.319,12.319,0,0,1,13.335.75,12.584,12.584,0,0,1,25.919,13.334h0A12.584,12.584,0,0,1,13.335,25.918Z" transform="translate(1.746 1.746)" fill="none" stroke="#fff" stroke-miterlimit="10" stroke-width="1.5"/>
      </g>
    </g>
  </g>
</svg>
